<svg xmlns="http://www.w3.org/2000/svg" width="20.03" height="21.339" viewBox="0 0 20.03 21.339">
    <g id="prefix___30_min" data-name="30 min">
        <path id="prefix__Path_14833" d="M237.484 94.145v-1.406h2.057a.61.61 0 1 0 0-1.22h-5.374a.61.61 0 1 0 0 1.22h2.058v1.406a9.59 9.59 0 1 0 1.26 0zm-.629 17.3a8.055 8.055 0 1 1 8.315-8.052 8.139 8.139 0 0 1-8.315 8.052zm8.8-18.245a.646.646 0 0 0-.808-.069l-2.1 1.424a.6.6 0 0 0-.158.845.575.575 0 0 0 .075.087l2.1 2.034a.636.636 0 0 0 .445.179.456.456 0 0 0 .055 0 .631.631 0 0 0 .461-.258l1.47-2.034a.6.6 0 0 0-.07-.781zm-.531 2.943l-1.038-1.005 1.052-.713.722.7zm-8.061 1.189v4.068c1.343.285 2.016.936 2.057 1.952a1.99 1.99 0 0 1-.42 1.261 2.131 2.131 0 0 1-1.637.813v4.074a6.181 6.181 0 0 0 5.375-3.05 5.679 5.679 0 0 0-.336-6.589 6.119 6.119 0 0 0-5.039-2.521zm1.386 6.1a1.386 1.386 0 1 0-1.4 1.342h.014a1.377 1.377 0 0 0 1.386-1.341z" data-name="Path 14833" transform="translate(-227.279 -91.519)" style="fill:#ff6200;fill-rule:evenodd"/>
    </g>
</svg>
