<svg xmlns="http://www.w3.org/2000/svg" width="23.518" height="21.928" viewBox="0 0 23.518 21.928">
    <path id="prefix__banks" d="M609.838 97.459h-21.843v1.218h21.843zM598.9 90.6l-11.738 4.71v1.341h23.518v-.976zm0 5.237a2.054 2.054 0 1 1 .041 0zm0-3.248a1.218 1.218 0 1 0 1.258 1.218 1.231 1.231 0 0 0-1.258-1.218zm-6.708 6.9h-3.354v.812h3.354zm-2.515 1.666v7.307h1.677v-7.308h-1.677zm-.839 8.932h3.354v-.813h-3.354v.812zm11.738-10.6h-3.354v.811h3.354v-.812zm8.384 0h-3.36v.811h3.354v-.812zm-2.184 11.413a6.013 6.013 0 0 1-6.036 0h-13.205v1.218a.388.388 0 0 0 .371.406.35.35 0 0 0 .048 0h21.841a.391.391 0 0 0 .419-.359.463.463 0 0 0 0-.047V110.9zm-9.558-.812h2.431a6.646 6.646 0 0 1-.713-.812h-1.719v.812zm11.738-.812h-.377a6.73 6.73 0 0 1-.713.812h1.09v-.813zm-.838-7.065v-1.057h-1.342a5.643 5.643 0 0 1 1.343 1.056zm-10.06 6.251h.42a9.12 9.12 0 0 1-.42-1.137zm1.677-7.308h-1.677v3.573a5.548 5.548 0 0 1 1.677-2.8zm4.025 9.746a4.874 4.874 0 1 0-5.03-4.872 4.925 4.925 0 0 0 5.029 4.872zm1.257-7.755l.922.893h-1.006a1.668 1.668 0 0 1 .168.65 1.8 1.8 0 0 1-.209.812l.628.57v1.258l-1.3-1.258a3.524 3.524 0 0 1-.628.162h-.21l2.138 2.03v1.258l-3.437-3.289-.923-.893h2.39a.6.6 0 0 0 .63-.56.534.534 0 0 0 0-.089.663.663 0 0 0-.587-.65h-1.551l-.922-.893h3.9z" transform="translate(-587.158 -90.597)" style="fill:#ff6200;fill-rule:evenodd"/>
</svg>
