<svg xmlns="http://www.w3.org/2000/svg" width="19.383" height="19.404" viewBox="0 0 19.383 19.404">
    <path id="prefix__flexible" d="M520.963 106.244a.737.737 0 0 0-.755.719v.036a1.52 1.52 0 0 1-1.51 1.512h-13.342a1.519 1.519 0 0 1-1.51-1.512V95.16a1.52 1.52 0 0 1 1.51-1.512h.938v.752a.755.755 0 1 0 1.51 0v-.791h3.416v.756a.755.755 0 1 0 1.51 0v-.756h3.452v.756a.755.755 0 1 0 1.51 0v-.756h.971a1.52 1.52 0 0 1 1.51 1.512v8.061a.755.755 0 1 0 1.51 0V95.16a3.015 3.015 0 0 0-3.008-3.023h-.984v-.792a.755.755 0 1 0-1.51 0v.755h-3.451v-.756a.755.755 0 1 0-1.51 0v.756h-3.42v-.756a.755.755 0 1 0-1.51 0v.756h-.935a3.015 3.015 0 0 0-3.021 3.01v11.854a3.015 3.015 0 0 0 3.007 3.024H518.7a3.015 3.015 0 0 0 3.02-3.01v-.014a.731.731 0 0 0-.741-.72h-.018zm-7.875-8.344a.607.607 0 0 0-.6-.612h-.01a.683.683 0 0 0-.538.288l-2.553 3.743a2.9 2.9 0 0 0-.5 1.655 2.656 2.656 0 0 0 .791 2.015 3.206 3.206 0 0 0 4.135 0 2.963 2.963 0 0 0 0-4.031 2.735 2.735 0 0 0-2.05-.792h-.144l1.367-1.943a.58.58 0 0 0 .102-.323zm-1.3 3.49a1.536 1.536 0 0 1 1.511 1.561v.167a1.455 1.455 0 0 1-1.541 1.368h-.041a1.548 1.548 0 0 1 .007-3.1z" transform="translate(-502.338 -90.584)" style="fill:#ff6200;fill-rule:evenodd"/>
</svg>
