<svg xmlns="http://www.w3.org/2000/svg" width="17.835" height="20.134" viewBox="0 0 17.835 20.134">
    <path id="prefix__insurance" d="M156.611 91.338a8.885 8.885 0 0 0-8.919 8.83.586.586 0 0 0 .586.581h7.746v7.668a3.091 3.091 0 0 0 6.181 0 .587.587 0 0 0-1.174 0 1.917 1.917 0 1 1-3.834 0v-7.668h7.746a.586.586 0 0 0 .586-.581 8.886 8.886 0 0 0-8.918-8.83zm-7.723 8.249a7.752 7.752 0 0 1 15.447 0zm4.517 5.577h-.471a1.432 1.432 0 0 0-.2-.426h.665a.264.264 0 0 0 .273-.255v-.016a.319.319 0 0 0-.325-.312H150.66a.343.343 0 0 0-.352.31.318.318 0 0 0 .325.312h.771a.842.842 0 0 1 .743.426h-1.487a.312.312 0 0 0-.082.619.3.3 0 0 0 .082 0h1.487a.5.5 0 0 1-.156.233.777.777 0 0 1-.548.233h-.743a.311.311 0 0 0-.313.194.293.293 0 0 0 .078.348l1.917 1.743a.287.287 0 0 0 .235.077.279.279 0 0 0 .235-.116.351.351 0 0 0 0-.465l-1.291-1.162a1.6 1.6 0 0 0 .978-.426 1.252 1.252 0 0 0 .391-.7h.47a.312.312 0 1 0 .093-.618.32.32 0 0 0-.094 0zm9.584-2.285h-.469a1.446 1.446 0 0 0-.2-.426h.665a.264.264 0 0 0 .274-.254v-.017a.319.319 0 0 0-.325-.312H160.247a.343.343 0 0 0-.352.31.318.318 0 0 0 .325.312h.77a.842.842 0 0 1 .743.426h-1.487a.343.343 0 0 0-.352.31.318.318 0 0 0 .325.312h1.514a.493.493 0 0 1-.156.233.777.777 0 0 1-.548.233h-.743a.31.31 0 0 0-.313.194.293.293 0 0 0 .078.348l1.917 1.743a.287.287 0 0 0 .235.077.28.28 0 0 0 .235-.116.352.352 0 0 0 0-.465l-1.293-1.162a1.6 1.6 0 0 0 .978-.426 1.255 1.255 0 0 0 .392-.7h.469a.343.343 0 0 0 .352-.31.319.319 0 0 0-.325-.311h-.027z" transform="translate(-147.692 -91.338)" style="fill:#ff6200;fill-rule:evenodd"/>
</svg>
