<svg xmlns="http://www.w3.org/2000/svg" id="prefix__non_jumping" width="19.862" height="19.883" data-name="non jumping" viewBox="0 0 19.862 19.883">
    <path id="prefix__Path_14832" d="M19.367 100.448a1.742 1.742 0 0 0-.524-2.015l-1.222-.993a.359.359 0 0 1-.062-.127l-.268-1.57a1.748 1.748 0 0 0-1.461-1.47L14.225 94l-.038-.005a.446.446 0 0 1-.057-.048l-.994-1.224a1.735 1.735 0 0 0-2-.534l-1.527.588-.035.023-.052-.023-1.512-.582a1.74 1.74 0 0 0-2.015.525L5 93.941a.365.365 0 0 1-.123.059l-1.569.268a1.748 1.748 0 0 0-1.469 1.462l-.274 1.608c0 .012 0 .025-.005.038a.526.526 0 0 1-.048.058l-1.222.998a1.736 1.736 0 0 0-.535 2l.586 1.528a.259.259 0 0 0 .023.04l-.023.052-.58 1.513a1.741 1.741 0 0 0 .524 2.015l1.221.993a.391.391 0 0 1 .063.127l.268 1.571a1.748 1.748 0 0 0 1.46 1.47l1.607.274.038.006a.614.614 0 0 1 .058.047l.993 1.224a1.755 1.755 0 0 0 1.367.66 1.649 1.649 0 0 0 .634-.127l1.526-.587h.026l1.536.582a1.737 1.737 0 0 0 2.013-.524l.993-1.223a.372.372 0 0 1 .126-.062l1.57-.268a1.748 1.748 0 0 0 1.469-1.461l.274-1.608c0-.013 0-.025.005-.038a.477.477 0 0 1 .048-.058l1.223-.995a1.738 1.738 0 0 0 .533-2l-.572-1.486a.227.227 0 0 1 .023-.127zm-1.738 1.952a.477.477 0 0 0 .022.068l.593 1.543a.571.571 0 0 1-.18.65l-1.253 1.019a.609.609 0 0 0-.044.042 1.238 1.238 0 0 0-.405.785l-.269 1.58a.578.578 0 0 1-.5.49l-1.605.274-.042.009a1.506 1.506 0 0 0-.7.39.52.52 0 0 0-.042.045l-1.021 1.258a.572.572 0 0 1-.662.169l-1.507-.58a1.306 1.306 0 0 0-.931 0l-1.522.586a.566.566 0 0 1-.65-.181L5.889 109.3c-.013-.016-.027-.031-.042-.045a1.243 1.243 0 0 0-.784-.405l-1.578-.27a.577.577 0 0 1-.488-.5l-.274-1.608a.373.373 0 0 0-.009-.042 1.514 1.514 0 0 0-.389-.7c-.014-.015-.029-.029-.045-.042l-1.256-1.021A.573.573 0 0 1 .852 104l.577-1.5a1.166 1.166 0 0 0 0-.973L.844 100a.568.568 0 0 1 .18-.65l1.253-1.019a.532.532 0 0 0 .045-.042 1.238 1.238 0 0 0 .406-.783L3 95.922a.577.577 0 0 1 .5-.49l1.6-.274a.36.36 0 0 0 .042-.009 1.507 1.507 0 0 0 .7-.39.529.529 0 0 0 .042-.045l1.021-1.257a.574.574 0 0 1 .662-.171l1.507.579a1.16 1.16 0 0 0 .974 0l1.521-.585a.57.57 0 0 1 .649.181l1.018 1.254a.463.463 0 0 0 .042.044 1.234 1.234 0 0 0 .784.405l1.578.27a.578.578 0 0 1 .487.5l.274 1.608a.418.418 0 0 0 .009.042 1.5 1.5 0 0 0 .39.7.424.424 0 0 0 .044.042l1.256 1.023a.573.573 0 0 1 .171.662l-.586 1.522a1.373 1.373 0 0 0-.056.867zm-10.081-2.021a1.843 1.843 0 0 0 1.842-1.842 1.822 1.822 0 0 0-1.8-1.842h-.042a1.843 1.843 0 0 0-1.842 1.842 1.822 1.822 0 0 0 1.8 1.842zm0-2.508a.651.651 0 0 1 .665.637v.029a.674.674 0 0 1-.666.666.651.651 0 0 1-.666-.636v-.03a.674.674 0 0 1 .667-.666zm3.916 5.841a1.842 1.842 0 1 0 1.84 1.824v-.015a1.88 1.88 0 0 0-1.84-1.811zm0 2.508a.666.666 0 0 1 0-1.333.7.7 0 0 1 .666.666.674.674 0 0 1-.666.665zm2.152-9.641a.587.587 0 0 0-.822.12l-7.127 9.559a.588.588 0 0 0 .113.818h.007a.587.587 0 0 0 .822-.12l7.126-9.556a.588.588 0 0 0-.113-.817l-.006-.005z" data-name="Path 14832" transform="translate(.367 -92.065)" style="fill:#ff6200;fill-rule:evenodd"/>
</svg>
