<svg xmlns="http://www.w3.org/2000/svg" width="84.603" height="34" viewBox="0 0 84.603 34">
    <defs>
        <linearGradient id="prefix__linear-gradient" x1=".5" x2=".5" y2="1" gradientUnits="objectBoundingBox">
            <stop offset="0" stop-color="#fe9411"/>
            <stop offset="1" stop-color="#ff6300"/>
        </linearGradient>
        <clipPath id="prefix__clip-path">
            <path id="prefix__Path_13116" d="M225.247 16.034a.067.067 0 0 0-.071.071v2.971a2.228 2.228 0 0 1-.285 1.283 1.082 1.082 0 0 1-.95.38.908.908 0 0 1-.808-.357 2.121 2.121 0 0 1-.214-1.067v-3.21a.067.067 0 0 0-.071-.071H221.4a.067.067 0 0 0-.071.071v3.5a4.11 4.11 0 0 0 .1.974 2.006 2.006 0 0 0 .333.76 1.623 1.623 0 0 0 .642.476 2.681 2.681 0 0 0 1.046.166 2.516 2.516 0 0 0 1-.214 1.678 1.678 0 0 0 .784-.734h.024v.734a.067.067 0 0 0 .071.071h1.371a.063.063 0 0 0 .071-.071v-5.662a.063.063 0 0 0-.071-.071zm-5.443-.071a2.154 2.154 0 0 0-.523.261 1.734 1.734 0 0 0-.427.4 1.766 1.766 0 0 0-.309.5h-.024v-.95a.112.112 0 0 0-.119-.119h-1.282a.112.112 0 0 0-.119.119v5.559a.112.112 0 0 0 .119.119h1.354a.112.112 0 0 0 .119-.119v-2.49a3.689 3.689 0 0 1 .071-.734 1.68 1.68 0 0 1 .261-.594 1.213 1.213 0 0 1 .5-.4 1.772 1.772 0 0 1 .734-.143 1.462 1.462 0 0 1 .309.024.3.3 0 0 1 .143.024.133.133 0 0 0 .143-.119v-1.267a.158.158 0 0 0-.1-.119.975.975 0 0 0-.261-.024 2.4 2.4 0 0 0-.594.071m10.434 4.682a1.007 1.007 0 0 1-.428-.4 1.487 1.487 0 0 1-.237-.594 3.366 3.366 0 0 1 0-1.378 1.642 1.642 0 0 1 .237-.594 1.827 1.827 0 0 1 .427-.427 1.154 1.154 0 0 1 .667-.166 1.076 1.076 0 0 1 .642.166 1.827 1.827 0 0 1 .427.427 1.644 1.644 0 0 1 .237.594 3.226 3.226 0 0 1 .071.689 3.4 3.4 0 0 1-.071.689 1.644 1.644 0 0 1-.237.594 1.259 1.259 0 0 1-1.093.57 1.177 1.177 0 0 1-.642-.166m0-4.54a1.711 1.711 0 0 0-.734.689h-.024v-.667a.067.067 0 0 0-.071-.071h-1.378a.063.063 0 0 0-.071.071v7.7a.063.063 0 0 0 .071.071h1.45a.067.067 0 0 0 .071-.071v-2.686h.024a1.9 1.9 0 0 0 .734.642 2.59 2.59 0 0 0 2.115-.024 2.429 2.429 0 0 0 .808-.667 2.752 2.752 0 0 0 .475-.95 4.378 4.378 0 0 0 .166-1.117 3.99 3.99 0 0 0-.166-1.188 2.776 2.776 0 0 0-.475-1 2.355 2.355 0 0 0-.832-.689 2.581 2.581 0 0 0-1.188-.261 2.248 2.248 0 0 0-.974.214m5.869 2.139a1.875 1.875 0 0 1 .071-.309 1.322 1.322 0 0 1 .214-.4 1.077 1.077 0 0 1 .4-.309 1.292 1.292 0 0 1 .642-.119 1.134 1.134 0 0 1 .88.309 1.806 1.806 0 0 1 .38.832c0 .047-.024.1-.071.1H236.2c-.071-.024-.095-.047-.095-.1m.166-2.115a3.718 3.718 0 0 0-.95.642 2.962 2.962 0 0 0-.618.974 3.424 3.424 0 0 0-.214 1.212 3.461 3.461 0 0 0 .214 1.236 2.9 2.9 0 0 0 .594.974 2.756 2.756 0 0 0 .927.618 3.37 3.37 0 0 0 1.236.214 2.986 2.986 0 0 0 1.687-.451 2.534 2.534 0 0 0 1-1.4c.024-.047-.024-.1-.071-.1h-1.26c-.024 0-.047.024-.071.047a1.2 1.2 0 0 1-.4.476 1.612 1.612 0 0 1-1.854-.119 1.458 1.458 0 0 1-.38-1.046.067.067 0 0 1 .071-.071h4.04a.063.063 0 0 0 .071-.071 4.042 4.042 0 0 0-.119-1.212 2.917 2.917 0 0 0-.523-1.093 2.538 2.538 0 0 0-.9-.76 2.761 2.761 0 0 0-1.283-.285 2.468 2.468 0 0 0-1.188.214m6.251 2.115a.821.821 0 0 1 .071-.309 1.323 1.323 0 0 1 .214-.4 1.077 1.077 0 0 1 .4-.309 1.293 1.293 0 0 1 .642-.119 1.134 1.134 0 0 1 .88.309 1.807 1.807 0 0 1 .38.832c0 .047-.024.1-.071.1h-2.424c-.071-.024-.1-.047-.1-.1m.166-2.115a3.227 3.227 0 0 0-.927.642 2.962 2.962 0 0 0-.618.974 3.423 3.423 0 0 0-.214 1.212 3.461 3.461 0 0 0 .214 1.236 2.9 2.9 0 0 0 .594.974 2.757 2.757 0 0 0 .927.618A3.369 3.369 0 0 0 243.9 22a2.986 2.986 0 0 0 1.687-.451 2.534 2.534 0 0 0 1-1.4c.024-.047-.024-.1-.071-.1h-1.26c-.024 0-.047.024-.071.047a1.2 1.2 0 0 1-.4.476 1.612 1.612 0 0 1-1.854-.119 1.458 1.458 0 0 1-.38-1.046.063.063 0 0 1 .071-.071h4.04a.063.063 0 0 0 .071-.071 4.043 4.043 0 0 0-.119-1.212 2.917 2.917 0 0 0-.523-1.093 2.539 2.539 0 0 0-.9-.76 2.76 2.76 0 0 0-1.283-.285 2.513 2.513 0 0 0-1.212.214m5.157-2.305a.063.063 0 0 0-.071.071v7.869a.067.067 0 0 0 .071.071h1.45a.067.067 0 0 0 .071-.071v-1.9c0-.024 0-.047.024-.047l.523-.5a.083.083 0 0 1 .119.024l1.521 2.472a.087.087 0 0 0 .071.024h1.759a.08.08 0 0 0 .071-.119L251.13 18.2a.072.072 0 0 1 0-.1l2.02-1.973a.067.067 0 0 0-.047-.119h-1.664c-.024 0-.047 0-.047.024l-1.854 1.925a.067.067 0 0 1-.119-.047v-4.039a.067.067 0 0 0-.071-.071h-1.5z" class="prefix__cls-1" data-name="Path 13116" transform="translate(-217.001 -13.8)"/>
        </clipPath>
        <style>
            .prefix__cls-1{fill:#fe6400}.prefix__cls-2{fill:#470a00}
        </style>
    </defs>
    <g id="prefix__Group_10142" data-name="Group 10142" transform="translate(-8.628 -7.021)">
        <g id="prefix__Group_10138" data-name="Group 10138" transform="translate(44.986 18.254)">
            <path id="prefix__Path_13111" d="M229.229 100.7h2.9v13.432h-2.9v-1.715a4.575 4.575 0 0 1-4.167 2.067c-3.094 0-5.161-2.1-5.161-5.53V100.7h2.9v7.95a2.793 2.793 0 0 0 3.013 3.11c2.035 0 3.414-1.267 3.414-3.863v-7.2z" class="prefix__cls-2" data-name="Path 13111" transform="translate(-219.9 -95.003)"/>
            <path id="prefix__Path_13112" d="M315.266 68.167a1.842 1.842 0 1 1 2.6-.005 1.848 1.848 0 0 1-2.6.005zm-.128 15.979v-13.43h2.9v13.43z" class="prefix__cls-2" data-name="Path 13112" transform="translate(-299.526 -65.019)"/>
            <path id="prefix__Path_13113" d="M353.718 110.6a6.89 6.89 0 0 1-2.019-5.032 6.814 6.814 0 0 1 2.019-5.033A6.925 6.925 0 0 1 358.8 98.5a6.623 6.623 0 0 1 5.995 3.462l-2.5 1.459a3.76 3.76 0 0 0-3.527-2.067 4.048 4.048 0 0 0-2.981 1.2 4.121 4.121 0 0 0-1.186 3.013 4.173 4.173 0 0 0 1.186 3.013 4.048 4.048 0 0 0 2.981 1.2 3.912 3.912 0 0 0 3.575-2.067l2.5 1.427a6.774 6.774 0 0 1-6.043 3.495 6.9 6.9 0 0 1-5.082-2.035z" class="prefix__cls-2" data-name="Path 13113" transform="translate(-330.573 -93.155)"/>
            <path id="prefix__Path_13114" d="M458.677 86h-3.462l-5.515-6.2V86h-2.9V67.2h2.9v11.316l5.209-5.947h3.543l-5.917 6.588z" class="prefix__cls-2" data-name="Path 13114" transform="translate(-410.431 -66.873)"/>
        </g>
        <g id="prefix__Group_10141" data-name="Group 10141" transform="translate(44.431 7.021)">
            <g id="prefix__Group_10140" data-name="Group 10140">
                <path id="prefix__Path_13115" d="M225.247 16.034a.067.067 0 0 0-.071.071v2.971a2.228 2.228 0 0 1-.285 1.283 1.082 1.082 0 0 1-.95.38.908.908 0 0 1-.808-.357 2.121 2.121 0 0 1-.214-1.067v-3.21a.067.067 0 0 0-.071-.071H221.4a.067.067 0 0 0-.071.071v3.5a4.11 4.11 0 0 0 .1.974 2.006 2.006 0 0 0 .333.76 1.623 1.623 0 0 0 .642.476 2.681 2.681 0 0 0 1.046.166 2.516 2.516 0 0 0 1-.214 1.678 1.678 0 0 0 .784-.734h.024v.734a.067.067 0 0 0 .071.071h1.371a.063.063 0 0 0 .071-.071v-5.662a.063.063 0 0 0-.071-.071zm-5.443-.071a2.154 2.154 0 0 0-.523.261 1.734 1.734 0 0 0-.427.4 1.766 1.766 0 0 0-.309.5h-.024v-.95a.112.112 0 0 0-.119-.119h-1.282a.112.112 0 0 0-.119.119v5.559a.112.112 0 0 0 .119.119h1.354a.112.112 0 0 0 .119-.119v-2.49a3.689 3.689 0 0 1 .071-.734 1.68 1.68 0 0 1 .261-.594 1.213 1.213 0 0 1 .5-.4 1.772 1.772 0 0 1 .734-.143 1.462 1.462 0 0 1 .309.024.3.3 0 0 1 .143.024.133.133 0 0 0 .143-.119v-1.267a.158.158 0 0 0-.1-.119.975.975 0 0 0-.261-.024 2.4 2.4 0 0 0-.594.071m10.434 4.682a1.007 1.007 0 0 1-.428-.4 1.487 1.487 0 0 1-.237-.594 3.366 3.366 0 0 1 0-1.378 1.642 1.642 0 0 1 .237-.594 1.827 1.827 0 0 1 .427-.427 1.154 1.154 0 0 1 .667-.166 1.076 1.076 0 0 1 .642.166 1.827 1.827 0 0 1 .427.427 1.644 1.644 0 0 1 .237.594 3.226 3.226 0 0 1 .071.689 3.4 3.4 0 0 1-.071.689 1.644 1.644 0 0 1-.237.594 1.259 1.259 0 0 1-1.093.57 1.177 1.177 0 0 1-.642-.166m0-4.54a1.711 1.711 0 0 0-.734.689h-.024v-.667a.067.067 0 0 0-.071-.071h-1.378a.063.063 0 0 0-.071.071v7.7a.063.063 0 0 0 .071.071h1.45a.067.067 0 0 0 .071-.071v-2.686h.024a1.9 1.9 0 0 0 .734.642 2.59 2.59 0 0 0 2.115-.024 2.429 2.429 0 0 0 .808-.667 2.752 2.752 0 0 0 .475-.95 4.378 4.378 0 0 0 .166-1.117 3.99 3.99 0 0 0-.166-1.188 2.776 2.776 0 0 0-.475-1 2.355 2.355 0 0 0-.832-.689 2.581 2.581 0 0 0-1.188-.261 2.248 2.248 0 0 0-.974.214m5.869 2.139a1.875 1.875 0 0 1 .071-.309 1.322 1.322 0 0 1 .214-.4 1.077 1.077 0 0 1 .4-.309 1.292 1.292 0 0 1 .642-.119 1.134 1.134 0 0 1 .88.309 1.806 1.806 0 0 1 .38.832c0 .047-.024.1-.071.1H236.2c-.071-.024-.095-.047-.095-.1m.166-2.115a3.718 3.718 0 0 0-.95.642 2.962 2.962 0 0 0-.618.974 3.424 3.424 0 0 0-.214 1.212 3.461 3.461 0 0 0 .214 1.236 2.9 2.9 0 0 0 .594.974 2.756 2.756 0 0 0 .927.618 3.37 3.37 0 0 0 1.236.214 2.986 2.986 0 0 0 1.687-.451 2.534 2.534 0 0 0 1-1.4c.024-.047-.024-.1-.071-.1h-1.26c-.024 0-.047.024-.071.047a1.2 1.2 0 0 1-.4.476 1.612 1.612 0 0 1-1.854-.119 1.458 1.458 0 0 1-.38-1.046.067.067 0 0 1 .071-.071h4.04a.063.063 0 0 0 .071-.071 4.042 4.042 0 0 0-.119-1.212 2.917 2.917 0 0 0-.523-1.093 2.538 2.538 0 0 0-.9-.76 2.761 2.761 0 0 0-1.283-.285 2.468 2.468 0 0 0-1.188.214m6.251 2.115a.821.821 0 0 1 .071-.309 1.323 1.323 0 0 1 .214-.4 1.077 1.077 0 0 1 .4-.309 1.293 1.293 0 0 1 .642-.119 1.134 1.134 0 0 1 .88.309 1.807 1.807 0 0 1 .38.832c0 .047-.024.1-.071.1h-2.424c-.071-.024-.1-.047-.1-.1m.166-2.115a3.227 3.227 0 0 0-.927.642 2.962 2.962 0 0 0-.618.974 3.423 3.423 0 0 0-.214 1.212 3.461 3.461 0 0 0 .214 1.236 2.9 2.9 0 0 0 .594.974 2.757 2.757 0 0 0 .927.618A3.369 3.369 0 0 0 243.9 22a2.986 2.986 0 0 0 1.687-.451 2.534 2.534 0 0 0 1-1.4c.024-.047-.024-.1-.071-.1h-1.26c-.024 0-.047.024-.071.047a1.2 1.2 0 0 1-.4.476 1.612 1.612 0 0 1-1.854-.119 1.458 1.458 0 0 1-.38-1.046.063.063 0 0 1 .071-.071h4.04a.063.063 0 0 0 .071-.071 4.043 4.043 0 0 0-.119-1.212 2.917 2.917 0 0 0-.523-1.093 2.539 2.539 0 0 0-.9-.76 2.76 2.76 0 0 0-1.283-.285 2.513 2.513 0 0 0-1.212.214m5.157-2.305a.063.063 0 0 0-.071.071v7.869a.067.067 0 0 0 .071.071h1.45a.067.067 0 0 0 .071-.071v-1.9c0-.024 0-.047.024-.047l.523-.5a.083.083 0 0 1 .119.024l1.521 2.472a.087.087 0 0 0 .071.024h1.759a.08.08 0 0 0 .071-.119L251.13 18.2a.072.072 0 0 1 0-.1l2.02-1.973a.067.067 0 0 0-.047-.119h-1.664c-.024 0-.047 0-.047.024l-1.854 1.925a.067.067 0 0 1-.119-.047v-4.039a.067.067 0 0 0-.071-.071h-1.5z" class="prefix__cls-1" data-name="Path 13115" transform="translate(-217.001 -13.8)"/>
                <g id="prefix__Group_10139" data-name="Group 10139">
                    <path id="prefix__Rectangle_5970" d="M0 0H38.003V10.481H0z" class="prefix__cls-1" data-name="Rectangle 5970" transform="translate(-.024 .024)"/>
                </g>
            </g>
        </g>
        <g id="prefix__Group_10294" data-name="Group 10294" transform="translate(8.628 7.021)">
            <path id="prefix__Path_13117" d="M16.429 2.862a13.564 13.564 0 0 1 11.6 20.6l1.162 3.3a16.406 16.406 0 0 0 3.668-10.352A16.425 16.425 0 0 0 16.428 0 16.429 16.429 0 0 0 0 16.428a16.429 16.429 0 0 0 16.427 16.428 16.272 16.272 0 0 0 10.217-3.569l-1.313-2.626a13.566 13.566 0 1 1-8.9-23.8" data-name="Path 13117"/>
            <path id="prefix__XMLID_1_" d="M89.386 80.571a.88.88 0 0 0-.858.168l-3.148 2.643-2.744-6.719a.892.892 0 0 0-1.162-.488 1.073 1.073 0 0 0-.235.133l-3.131 2.626a.882.882 0 0 0-.253 1.027l4.09 10.032a.892.892 0 0 0 1.162.488.705.705 0 0 0 .235-.151l3.08-2.576L92.9 97.13a.374.374 0 0 0 .674-.3l-3.616-15.608a.873.873 0 0 0-.572-.651z" class="prefix__cls-2" transform="translate(-64.693 -63.298)"/>
        </g>
    </g>
</svg>
