<svg xmlns="http://www.w3.org/2000/svg" width="19.594" height="20.044" viewBox="0 0 19.594 20.044">
    <path id="prefix__save" d="M91.034 105.628a1.6 1.6 0 0 0-1.618-.079l-3.234 1.568a1.686 1.686 0 0 0-.726-.445l-4.833-1.5a10.96 10.96 0 0 0-4.515-.074v-.332a.582.582 0 0 0-.582-.577h-2.72a.582.582 0 0 0-.582.577v6.233a.582.582 0 0 0 .582.575h2.72a.582.582 0 0 0 .582-.577v-.8c.725-.219.828-.231 1.032-.138a13.992 13.992 0 0 0 5.963 1.441c2.033 0 2.161-.064 5.477-1.706.629-.312 1.377-.683 2.277-1.122a1.642 1.642 0 0 0 .956-1.389 1.844 1.844 0 0 0-.781-1.648zm-16.092 4.787h-1.554v-5.079h1.554zm2.692-1.408a1.988 1.988 0 0 0-1.527-.02v-2.727a10.322 10.322 0 0 1 4.178.012l4.82 1.5a.494.494 0 0 1 .261.181.466.466 0 0 0 .091.24.73.73 0 0 1-.2.617.392.392 0 0 1-.428.054l-5.052-1.579a.585.585 0 0 0-.731.377.576.576 0 0 0 .376.723l5.042 1.577a1.738 1.738 0 0 0 .551.091 1.539 1.539 0 0 0 .443-.07 5.116 5.116 0 0 1-2.364.355 12.835 12.835 0 0 1-5.459-1.331zm12.711-1.379c-.905.442-1.656.814-2.285 1.126-1.039.515-1.739.861-2.273 1.1a1.523 1.523 0 0 0 .253-.18 1.875 1.875 0 0 0 .589-1.484l3.3-1.6a.418.418 0 0 1 .454 0 .708.708 0 0 1 .271.61.5.5 0 0 1-.306.434zm-4.912-2.328h.17c.748 0 3.519-.088 4.872-1.351a2.369 2.369 0 0 0 .789-1.712c.074-2.57-2.857-7.087-3.541-8.1a8.875 8.875 0 0 1 1.118-1.666.574.574 0 0 0 .073-.612.585.585 0 0 0-.526-.329h-5.906a.581.581 0 0 0-.526.329.572.572 0 0 0 .073.612 9.529 9.529 0 0 1 1.125 1.656c-.674 1-3.621 5.533-3.546 8.077.091 3.14 5.431 3.1 5.826 3.1zm1.792-12.622a5.457 5.457 0 0 0-.582 1.039h-2.418a5.5 5.5 0 0 0-.582-1.039zm-3.177 2.192h2.774c1.09 1.63 3.332 5.4 3.276 7.332-.054 1.865-3.947 1.941-4.565 1.941h-.112c-.047 0-4.592.042-4.651-1.979-.056-1.9 2.187-5.664 3.276-7.292zm-.012 3.77h.779a.836.836 0 0 1 .738.423h-1.476a.341.341 0 0 0-.35.308.316.316 0 0 0 .322.31h1.503a.493.493 0 0 1-.155.231.792.792 0 0 1-.582.231h-.777a.308.308 0 0 0-.311.192.291.291 0 0 0 .078.346l1.9 1.731a.285.285 0 0 0 .233.077.278.278 0 0 0 .233-.116.35.35 0 0 0 0-.462l-1.282-1.193a1.587 1.587 0 0 0 .972-.423 1.246 1.246 0 0 0 .389-.693h.466a.31.31 0 1 0 0-.616h-.466a1.438 1.438 0 0 0-.194-.423h.661a.232.232 0 0 0 .35-.231.317.317 0 0 0-.323-.31h-2.705a.341.341 0 0 0-.35.308.316.316 0 0 0 .322.311h.026z" transform="translate(-72.225 -91.525)" style="fill:#ff6200;fill-rule:evenodd"/>
</svg>
